<svg width="76" height="76" viewBox="0 0 76 76" fill="none" xmlns="http://www.w3.org/2000/svg">
<g clip-path="url(#clip0_1_230)">
<path opacity="0.06" d="M54.9787 0H21.0213C9.41155 0 0 9.41155 0 21.0213V54.9787C0 66.5885 9.41155 76 21.0213 76H54.9787C66.5885 76 76 66.5885 76 54.9787V21.0213C76 9.41155 66.5885 0 54.9787 0Z" fill="#FD00F3"/>
<path d="M52.0596 14.4521H24.9145C19.2926 14.4521 14.7351 19.0096 14.7351 24.6316V51.7767C14.7351 57.3986 19.2926 61.9561 24.9145 61.9561H52.0596C57.6816 61.9561 62.239 57.3986 62.239 51.7767V24.6316C62.239 19.0096 57.6816 14.4521 52.0596 14.4521Z" fill="url(#paint0_radial_1_230)"/>
<path d="M52.0596 14.4521H24.9145C19.2926 14.4521 14.7351 19.0096 14.7351 24.6316V51.7767C14.7351 57.3986 19.2926 61.9561 24.9145 61.9561H52.0596C57.6816 61.9561 62.239 57.3986 62.239 51.7767V24.6316C62.239 19.0096 57.6816 14.4521 52.0596 14.4521Z" fill="url(#paint1_radial_1_230)"/>
<path d="M52.0596 14.4521H24.9145C19.2926 14.4521 14.7351 19.0096 14.7351 24.6316V51.7767C14.7351 57.3986 19.2926 61.9561 24.9145 61.9561H52.0596C57.6816 61.9561 62.239 57.3986 62.239 51.7767V24.6316C62.239 19.0096 57.6816 14.4521 52.0596 14.4521Z" fill="url(#paint2_radial_1_230)"/>
<path d="M50.363 28.873C50.363 30.2784 49.2236 31.4178 47.8182 31.4178C46.4127 31.4178 45.2733 30.2784 45.2733 28.873C45.2733 27.4675 46.4127 26.3281 47.8182 26.3281C49.2236 26.3281 50.363 27.4675 50.363 28.873Z" fill="white"/>
<path fill-rule="evenodd" clip-rule="evenodd" d="M38.487 46.6871C43.1719 46.6871 46.9698 42.8892 46.9698 38.2043C46.9698 33.5194 43.1719 29.7214 38.487 29.7214C33.8021 29.7214 30.0042 33.5194 30.0042 38.2043C30.0042 42.8892 33.8021 46.6871 38.487 46.6871ZM38.487 43.294C41.298 43.294 43.5767 41.0153 43.5767 38.2043C43.5767 35.3932 41.298 33.1146 38.487 33.1146C35.6759 33.1146 33.3973 35.3932 33.3973 38.2043C33.3973 41.0153 35.6759 43.294 38.487 43.294Z" fill="white"/>
<path fill-rule="evenodd" clip-rule="evenodd" d="M21.5214 37.5256C21.5214 31.8246 21.5214 28.974 22.6309 26.7966C23.6068 24.8812 25.164 23.3239 27.0794 22.348C29.2569 21.2385 32.1074 21.2385 37.8084 21.2385H39.1657C44.8667 21.2385 47.7172 21.2385 49.8946 22.348C51.81 23.3239 53.3673 24.8812 54.3432 26.7966C55.4527 28.974 55.4527 31.8246 55.4527 37.5256V38.8828C55.4527 44.5838 55.4527 47.4344 54.3432 49.6118C53.3673 51.5272 51.81 53.0845 49.8946 54.0603C47.7172 55.1699 44.8667 55.1699 39.1657 55.1699H37.8084C32.1074 55.1699 29.2569 55.1699 27.0794 54.0603C25.164 53.0845 23.6068 51.5272 22.6309 49.6118C21.5214 47.4344 21.5214 44.5838 21.5214 38.8828V37.5256ZM37.8084 24.6317H39.1657C42.0722 24.6317 44.0479 24.6343 45.5751 24.7591C47.0629 24.8806 47.8236 25.1009 48.3543 25.3713C49.6311 26.022 50.6693 27.0601 51.3199 28.337C51.5903 28.8677 51.8107 29.6284 51.9322 31.1161C52.0569 32.6434 52.0596 34.619 52.0596 37.5256V38.8828C52.0596 41.7894 52.0569 43.7651 51.9322 45.2923C51.8107 46.78 51.5903 47.5408 51.3199 48.0715C50.6693 49.3483 49.6311 50.3864 48.3543 51.0371C47.8236 51.3075 47.0629 51.5279 45.5751 51.6494C44.0479 51.7741 42.0722 51.7768 39.1657 51.7768H37.8084C34.9019 51.7768 32.9262 51.7741 31.399 51.6494C29.9112 51.5279 29.1505 51.3075 28.6198 51.0371C27.343 50.3864 26.3048 49.3483 25.6542 48.0715C25.3838 47.5408 25.1635 46.78 25.0419 45.2923C24.9171 43.7651 24.9145 41.7894 24.9145 38.8828V37.5256C24.9145 34.619 24.9171 32.6434 25.0419 31.1161C25.1635 29.6284 25.3838 28.8677 25.6542 28.337C26.3048 27.0601 27.343 26.022 28.6198 25.3713C29.1505 25.1009 29.9112 24.8806 31.399 24.7591C32.9262 24.6343 34.9019 24.6317 37.8084 24.6317Z" fill="white"/>
</g>
<defs>
<radialGradient id="paint0_radial_1_230" cx="0" cy="0" r="1" gradientUnits="userSpaceOnUse" gradientTransform="translate(31.7008 50.0801) rotate(-55.3758) scale(43.2958)">
<stop stop-color="#B13589"/>
<stop offset="0.79309" stop-color="#C62F94"/>
<stop offset="1" stop-color="#8A3AC8"/>
</radialGradient>
<radialGradient id="paint1_radial_1_230" cx="0" cy="0" r="1" gradientUnits="userSpaceOnUse" gradientTransform="translate(30.0042 63.6526) rotate(-65.1363) scale(38.3326)">
<stop stop-color="#E0E8B7"/>
<stop offset="0.444662" stop-color="#FB8A2E"/>
<stop offset="0.71474" stop-color="#E2425C"/>
<stop offset="1" stop-color="#E2425C" stop-opacity="0"/>
</radialGradient>
<radialGradient id="paint2_radial_1_230" cx="0" cy="0" r="1" gradientUnits="userSpaceOnUse" gradientTransform="translate(12.1903 16.1487) rotate(-8.1301) scale(65.9811 14.1127)">
<stop offset="0.156701" stop-color="#406ADC"/>
<stop offset="0.467799" stop-color="#6A45BE"/>
<stop offset="1" stop-color="#6A45BE" stop-opacity="0"/>
</radialGradient>
<clipPath id="clip0_1_230">
<rect width="76" height="76" fill="white"/>
</clipPath>
</defs>
</svg>
