<svg width="15" height="14" viewBox="0 0 15 14" fill="none" xmlns="http://www.w3.org/2000/svg">
<path d="M3.20496 1.74977C3.20476 2.1476 3.04653 2.52905 2.76509 2.81021C2.48364 3.09138 2.10203 3.24922 1.70421 3.24902C1.30638 3.24882 0.92493 3.0906 0.643766 2.80915C0.362602 2.52771 0.204757 2.1461 0.204956 1.74827C0.205155 1.35045 0.363381 0.968997 0.644826 0.687833C0.926272 0.406669 1.30788 0.248825 1.70571 0.249024C2.10353 0.249223 2.48498 0.407449 2.76615 0.688894C3.04731 0.970339 3.20516 1.35195 3.20496 1.74977ZM3.24996 4.35977H0.249956V13.7498H3.24996V4.35977ZM7.98996 4.35977H5.00496V13.7498H7.95996V8.82227C7.95996 6.07727 11.5375 5.82227 11.5375 8.82227V13.7498H14.5V7.80227C14.5 3.17477 9.20496 3.34727 7.95996 5.61977L7.98996 4.35977Z" fill="#3D96F4"/>
</svg>
